<svg width="262" height="68" viewBox="0 0 262 68" fill="none" xmlns="http://www.w3.org/2000/svg">
<path d="M90.8622 43.2727C89.7713 43.2727 88.8082 42.9972 87.973 42.446C87.1378 41.8892 86.4844 41.1051 86.0128 40.0938C85.5412 39.0767 85.3054 37.875 85.3054 36.4886C85.3054 35.1136 85.5412 33.9205 86.0128 32.9091C86.4844 31.8977 87.1406 31.1165 87.9815 30.5653C88.8224 30.0142 89.794 29.7386 90.8963 29.7386C91.7486 29.7386 92.4219 29.8807 92.9162 30.1648C93.4162 30.4432 93.7969 30.7614 94.0582 31.1193C94.3253 31.4716 94.5327 31.7614 94.6804 31.9886H94.8509V25.5455H96.8622V43H94.919V40.9886H94.6804C94.5327 41.2273 94.3224 41.5284 94.0497 41.892C93.777 42.25 93.3878 42.571 92.8821 42.8551C92.3764 43.1335 91.7031 43.2727 90.8622 43.2727ZM91.1349 41.4659C91.9418 41.4659 92.6236 41.2557 93.1804 40.8352C93.7372 40.4091 94.1605 39.821 94.4503 39.071C94.7401 38.3153 94.8849 37.4432 94.8849 36.4545C94.8849 35.4773 94.7429 34.6222 94.4588 33.8892C94.1747 33.1506 93.7543 32.5767 93.1974 32.1676C92.6406 31.7528 91.9531 31.5455 91.1349 31.5455C90.2827 31.5455 89.5724 31.7642 89.0043 32.2017C88.4418 32.6335 88.0185 33.2216 87.7344 33.9659C87.456 34.7045 87.3168 35.5341 87.3168 36.4545C87.3168 37.3864 87.4588 38.233 87.7429 38.9943C88.0327 39.75 88.4588 40.3523 89.0213 40.8011C89.5895 41.2443 90.294 41.4659 91.1349 41.4659ZM100.825 43V29.9091H102.837V43H100.825ZM101.848 27.7273C101.456 27.7273 101.118 27.5938 100.834 27.3267C100.555 27.0597 100.416 26.7386 100.416 26.3636C100.416 25.9886 100.555 25.6676 100.834 25.4006C101.118 25.1335 101.456 25 101.848 25C102.24 25 102.575 25.1335 102.854 25.4006C103.138 25.6676 103.28 25.9886 103.28 26.3636C103.28 26.7386 103.138 27.0597 102.854 27.3267C102.575 27.5938 102.24 27.7273 101.848 27.7273ZM115.793 32.8409L113.987 33.3523C113.873 33.0511 113.705 32.7585 113.484 32.4744C113.268 32.1847 112.972 31.946 112.597 31.7585C112.222 31.571 111.742 31.4773 111.157 31.4773C110.356 31.4773 109.688 31.6619 109.154 32.0312C108.626 32.3949 108.362 32.858 108.362 33.4205C108.362 33.9205 108.543 34.3153 108.907 34.6051C109.271 34.8949 109.839 35.1364 110.612 35.3295L112.555 35.8068C113.725 36.0909 114.597 36.5256 115.171 37.1108C115.745 37.6903 116.032 38.4375 116.032 39.3523C116.032 40.1023 115.816 40.7727 115.384 41.3636C114.958 41.9545 114.362 42.4205 113.594 42.7614C112.827 43.1023 111.935 43.2727 110.918 43.2727C109.583 43.2727 108.478 42.983 107.603 42.4034C106.728 41.8239 106.174 40.9773 105.941 39.8636L107.85 39.3864C108.032 40.0909 108.376 40.6193 108.881 40.9716C109.393 41.3239 110.06 41.5 110.884 41.5C111.822 41.5 112.566 41.3011 113.117 40.9034C113.674 40.5 113.952 40.017 113.952 39.4545C113.952 39 113.793 38.6193 113.475 38.3125C113.157 38 112.668 37.767 112.009 37.6136L109.827 37.1023C108.629 36.8182 107.748 36.3778 107.185 35.7812C106.629 35.179 106.35 34.4261 106.35 33.5227C106.35 32.7841 106.558 32.1307 106.972 31.5625C107.393 30.9943 107.964 30.5483 108.685 30.2244C109.413 29.9006 110.237 29.7386 111.157 29.7386C112.452 29.7386 113.469 30.0227 114.208 30.5909C114.952 31.1591 115.481 31.9091 115.793 32.8409ZM124.753 29.9091V31.6136H117.969V29.9091H124.753ZM119.946 26.7727H121.957V39.25C121.957 39.8182 122.04 40.2443 122.205 40.5284C122.375 40.8068 122.591 40.9943 122.852 41.0909C123.119 41.1818 123.401 41.2273 123.696 41.2273C123.918 41.2273 124.099 41.2159 124.241 41.1932C124.384 41.1648 124.497 41.142 124.582 41.125L124.991 42.9318C124.855 42.983 124.665 43.0341 124.42 43.0852C124.176 43.142 123.866 43.1705 123.491 43.1705C122.923 43.1705 122.366 43.0483 121.821 42.804C121.281 42.5597 120.832 42.1875 120.474 41.6875C120.122 41.1875 119.946 40.5568 119.946 39.7955V26.7727ZM132.956 43.2727C131.774 43.2727 130.737 42.9915 129.845 42.429C128.959 41.8665 128.266 41.0795 127.766 40.0682C127.271 39.0568 127.024 37.875 127.024 36.5227C127.024 35.1591 127.271 33.9687 127.766 32.9517C128.266 31.9347 128.959 31.1449 129.845 30.5824C130.737 30.0199 131.774 29.7386 132.956 29.7386C134.138 29.7386 135.172 30.0199 136.058 30.5824C136.95 31.1449 137.643 31.9347 138.138 32.9517C138.638 33.9687 138.888 35.1591 138.888 36.5227C138.888 37.875 138.638 39.0568 138.138 40.0682C137.643 41.0795 136.95 41.8665 136.058 42.429C135.172 42.9915 134.138 43.2727 132.956 43.2727ZM132.956 41.4659C133.854 41.4659 134.592 41.2358 135.172 40.7756C135.751 40.3153 136.18 39.7102 136.459 38.9602C136.737 38.2102 136.876 37.3977 136.876 36.5227C136.876 35.6477 136.737 34.8324 136.459 34.0767C136.18 33.321 135.751 32.7102 135.172 32.2443C134.592 31.7784 133.854 31.5455 132.956 31.5455C132.058 31.5455 131.32 31.7784 130.74 32.2443C130.161 32.7102 129.732 33.321 129.453 34.0767C129.175 34.8324 129.036 35.6477 129.036 36.5227C129.036 37.3977 129.175 38.2102 129.453 38.9602C129.732 39.7102 130.161 40.3153 130.74 40.7756C131.32 41.2358 132.058 41.4659 132.956 41.4659ZM141.958 43V29.9091H143.901V31.8864H144.038C144.276 31.2386 144.708 30.7131 145.333 30.3097C145.958 29.9062 146.663 29.7045 147.447 29.7045C147.594 29.7045 147.779 29.7074 148.001 29.7131C148.222 29.7187 148.39 29.7273 148.504 29.7386V31.7841C148.435 31.767 148.279 31.7415 148.035 31.7074C147.796 31.6676 147.543 31.6477 147.276 31.6477C146.64 31.6477 146.072 31.7812 145.572 32.0483C145.077 32.3097 144.685 32.6733 144.396 33.1392C144.112 33.5994 143.969 34.125 143.969 34.7159V43H141.958ZM157.401 29.9091V31.6136H150.617V29.9091H157.401ZM152.594 26.7727H154.606V39.25C154.606 39.8182 154.688 40.2443 154.853 40.5284C155.023 40.8068 155.239 40.9943 155.501 41.0909C155.768 41.1818 156.049 41.2273 156.344 41.2273C156.566 41.2273 156.748 41.2159 156.89 41.1932C157.032 41.1648 157.146 41.142 157.231 41.125L157.64 42.9318C157.504 42.983 157.313 43.0341 157.069 43.0852C156.825 43.142 156.515 43.1705 156.14 43.1705C155.572 43.1705 155.015 43.0483 154.469 42.804C153.93 42.5597 153.481 42.1875 153.123 41.6875C152.771 41.1875 152.594 40.5568 152.594 39.7955V26.7727ZM162.719 25.5455V43H160.708V25.5455H162.719ZM167.699 47.9091C167.358 47.9091 167.054 47.8807 166.787 47.8239C166.52 47.7727 166.335 47.7216 166.233 47.6705L166.744 45.8977C167.233 46.0227 167.665 46.0682 168.04 46.0341C168.415 46 168.747 45.8324 169.037 45.5312C169.332 45.2358 169.602 44.7557 169.847 44.0909L170.222 43.0682L165.381 29.9091H167.562L171.176 40.3409H171.312L174.926 29.9091H177.108L171.551 44.9091C171.301 45.5852 170.991 46.1449 170.622 46.5881C170.253 47.0369 169.824 47.3693 169.335 47.5852C168.852 47.8011 168.307 47.9091 167.699 47.9091Z" fill="white"/>
<path d="M69 40.1429L140.118 27.8095L98.8235 49.5397L173 19V56" stroke="white" stroke-width="0.4"/>
</svg>
